<svg width="60" height="60" viewBox="0 0 60 60" fill="none" xmlns="http://www.w3.org/2000/svg">
<circle cx="30" cy="30" r="30" fill="black"/>
<path d="M19.5113 40C14.044 40 10 36.1596 10 30.5C10 24.8404 14.044 21 19.5113 21C24.9786 21 29 24.8404 29 30.5C29 36.1596 24.9786 40 19.5113 40ZM14.8347 30.5C14.8347 33.4421 16.7325 35.4858 19.5113 35.4858C22.2901 35.4858 24.1653 33.4421 24.1653 30.5C24.1653 27.5579 22.2901 25.5142 19.5113 25.5142C16.7325 25.5142 14.8347 27.5579 14.8347 30.5Z" fill="white"/>
<path d="M30 35.8073L37.4787 25.8239H30V21.4336H43.7324V25.1623L36.5761 35.1457H44.506V39.5661H30V35.8073Z" fill="white"/>
<rect x="46.506" y="35.2358" width="4.33065" height="4.33065" fill="#831FFF"/>
</svg>
